<svg id="Layer_1" data-name="Layer 1" xmlns="http://www.w3.org/2000/svg" viewBox="0 0 320.674 56.029"><path d="M63.09,44.705H73.618V24.9H62.4V16.932H73.618V11.738c0-6.026,3.463-10.321,10.942-10.321H96.681V9.382H83.868v7.55H96.681V24.9H83.868V44.705h11.22V52.67h-32Z" fill="#fff"/><path d="M104.643,44.705h10.529V24.9H103.951V16.932h11.221V11.738c0-6.026,3.462-10.321,10.942-10.321h12.121V9.382H125.422v7.55h12.813V24.9H125.422V44.705h11.219V52.67h-32Z" fill="#fff"/><path d="M141.764,16.932h8.52l2.562,28.95h.693l4.224-28.95h9l4.157,28.95h.692l2.632-28.95h8.1L178.126,52.67h-12.19L162.4,28.013h-.692L158.179,52.67H145.99Z" fill="#fff"/><path d="M210.053,46.16h-.484c-1.8,4.294-4.849,7.341-10.6,7.341-7.9,0-13.436-5.749-13.436-18.7s5.541-18.7,13.436-18.7c5.748,0,8.8,3.047,10.6,7.341h.484V1.417H220.3V52.67H210.053Zm0-6.095V29.537c0-3.74-3.046-5.471-6.648-5.471-4.571,0-7.2,2.978-7.2,7.965v5.54c0,4.987,2.632,7.965,7.2,7.965C207.007,45.536,210.053,43.805,210.053,40.065Z" fill="#fff"/><path d="M231.306,13.064V1.582h7.386V3.507h-5.214V6.353h4.539V8.277h-4.539v4.787Z" fill="#fff"/><path d="M239.4,10.728c0-1.76,1.333-2.632,3.668-2.632h1.464V7.471c0-.954-.477-1.513-1.595-1.513a2.238,2.238,0,0,0-1.958,1.085l-1.25-1.118a3.617,3.617,0,0,1,3.356-1.645c2.319,0,3.552,1.1,3.552,3.06v4.046h.856v1.678h-1.168a1.562,1.562,0,0,1-1.595-1.481h-.1a2.324,2.324,0,0,1-2.5,1.678A2.434,2.434,0,0,1,239.4,10.728Zm5.132-.23V9.363h-1.349c-1.1,0-1.644.378-1.644,1.052v.28c0,.691.476,1.037,1.3,1.037C243.775,11.732,244.531,11.3,244.531,10.5Z" fill="#fff"/><path d="M248.463,11.682l1.283-1.25A3.017,3.017,0,0,0,252.1,11.6c1,0,1.431-.378,1.431-.987,0-.493-.3-.806-1.053-.9l-.855-.115c-1.842-.23-2.862-1.036-2.862-2.6,0-1.662,1.3-2.715,3.257-2.715a4.094,4.094,0,0,1,3.356,1.349l-1.234,1.234a2.834,2.834,0,0,0-2.056-.921c-.905,0-1.3.361-1.3.888,0,.576.312.838,1.119.97l.872.115c1.875.264,2.779,1.1,2.779,2.534,0,1.661-1.4,2.812-3.536,2.812A4.358,4.358,0,0,1,248.463,11.682Z" fill="#fff"/><path d="M259.961,13.064a1.987,1.987,0,0,1-2.221-2.188V6.139h-1.267V4.477h.659c.625,0,.822-.295.822-.888V2.125h1.891V4.477h1.76V6.139h-1.76v5.247h1.629v1.678Z" fill="#fff"/><path d="M231.306,32.8V21.322h7.386v1.924h-5.214v2.846h4.539v1.924h-4.539V32.8Z" fill="#fff"/><path d="M239.6,28.494c0-2.747,1.53-4.475,3.981-4.475,2.468,0,4,1.728,4,4.475,0,2.763-1.529,4.506-4,4.506C241.127,33,239.6,31.257,239.6,28.494Zm5.774.8V27.7c0-1.283-.691-1.991-1.793-1.991-1.086,0-1.777.708-1.777,1.991V29.3c0,1.3.691,2.007,1.777,2.007C244.68,31.306,245.371,30.6,245.371,29.3Z" fill="#fff"/><path d="M249.432,32.8V24.216h2.106v1.777h.083a2.2,2.2,0,0,1,2.269-1.777h.461v1.991h-.658c-1.415,0-2.155.395-2.155,1.332V32.8Z" fill="#fff"/><path d="M255.14,24.216h2.024l.872,3.537.675,2.945h.065l.789-2.945,1-3.537h1.908l1.036,3.537.806,2.945h.066l.674-2.945.856-3.537h1.957L265.52,32.8h-2.27l-1.1-3.783-.641-2.336h-.05l-.625,2.336L259.747,32.8h-2.238Z" fill="#fff"/><path d="M268.629,30.467c0-1.76,1.333-2.632,3.668-2.632h1.463V27.21c0-.954-.476-1.513-1.594-1.513a2.233,2.233,0,0,0-1.958,1.086l-1.25-1.119a3.616,3.616,0,0,1,3.355-1.645c2.32,0,3.553,1.1,3.553,3.06v4.046h.855V32.8h-1.168a1.561,1.561,0,0,1-1.594-1.48h-.1a2.323,2.323,0,0,1-2.5,1.677A2.433,2.433,0,0,1,268.629,30.467Zm5.131-.23V29.1h-1.348c-1.1,0-1.645.378-1.645,1.053v.279c0,.691.477,1.037,1.3,1.037C273.005,31.471,273.76,31.043,273.76,30.237Z" fill="#fff"/><path d="M278.432,32.8V24.216h2.106v1.777h.083a2.2,2.2,0,0,1,2.269-1.777h.461v1.991h-.658c-1.415,0-2.155.395-2.155,1.332V32.8Z" fill="#fff"/><path d="M290.144,31.372h-.082A2.412,2.412,0,0,1,287.693,33c-2.154,0-3.355-1.628-3.355-4.506,0-2.863,1.2-4.475,3.355-4.475a2.365,2.365,0,0,1,2.369,1.612h.082v-5h2.106V32.8h-2.106Zm0-1.513V27.128c0-.839-.773-1.381-1.776-1.381a1.827,1.827,0,0,0-1.826,2.022V29.25a1.815,1.815,0,0,0,1.826,2.007C289.371,31.257,290.144,30.747,290.144,29.859Z" fill="#fff"/><path d="M231.306,52.541V41.06h7.567v1.925h-5.395v2.7h4.77v1.924h-4.77v3.01h5.395v1.924Z" fill="#fff"/><path d="M241.044,52.541V43.955h2.1v1.431h.083a2.367,2.367,0,0,1,2.4-1.628c1.76,0,2.748,1.217,2.748,3.356v5.427h-2.106V47.328c0-1.218-.411-1.843-1.415-1.843-.872,0-1.711.461-1.711,1.382v5.674Z" fill="#fff"/><path d="M253.957,56.029c-2.9,0-4-.757-4-2.024a1.581,1.581,0,0,1,1.529-1.644V52.18a1.412,1.412,0,0,1-1.1-1.432c0-.887.756-1.332,1.58-1.512v-.067a2.588,2.588,0,0,1-1.564-2.5c0-1.743,1.234-2.911,3.554-2.911a4.77,4.77,0,0,1,1.5.214v-.28a1.1,1.1,0,0,1,1.218-1.25H258v1.612h-1.826v.231a2.568,2.568,0,0,1,1.332,2.384c0,1.727-1.217,2.879-3.552,2.879a5.314,5.314,0,0,1-1.317-.148.878.878,0,0,0-.608.773c0,.428.362.642,1.118.642h2.3c2.1,0,3.011.9,3.011,2.451C258.464,55.058,257.246,56.029,253.957,56.029Zm1.068-3.389H252.1a1.056,1.056,0,0,0-.443.889c0,.657.493,1.052,1.809,1.052h1.052c1.366,0,1.975-.345,1.975-1.069C256.49,52.969,256.094,52.64,255.025,52.64ZM255.5,46.8v-.28c0-.871-.543-1.316-1.546-1.316s-1.547.445-1.547,1.316v.28c0,.856.543,1.316,1.547,1.316S255.5,47.657,255.5,46.8Z" fill="#fff"/><path d="M259.5,41.653v-.329c0-.609.362-1.053,1.233-1.053s1.234.444,1.234,1.053v.329c0,.608-.378,1.052-1.234,1.052S259.5,42.261,259.5,41.653Zm.18,2.3h2.106v8.586H259.68Z" fill="#fff"/><path d="M264.22,52.541V43.955h2.106v1.431h.083a2.368,2.368,0,0,1,2.4-1.628c1.76,0,2.747,1.217,2.747,3.356v5.427h-2.105V47.328c0-1.218-.411-1.843-1.415-1.843-.872,0-1.711.461-1.711,1.382v5.674Z" fill="#fff"/><path d="M273.317,48.232c0-2.714,1.464-4.474,3.981-4.474,2.681,0,3.915,1.974,3.915,4.326v.691h-5.708v.214a1.906,1.906,0,0,0,2.088,2.072,2.6,2.6,0,0,0,2.188-1.168l1.136,1.267a4.253,4.253,0,0,1-3.554,1.579C274.831,52.739,273.317,50.979,273.317,48.232Zm2.188-.888v.132h3.52v-.148c0-1.185-.609-1.991-1.694-1.991A1.823,1.823,0,0,0,275.505,47.344Z" fill="#fff"/><path d="M282.5,48.232c0-2.714,1.464-4.474,3.98-4.474,2.682,0,3.915,1.974,3.915,4.326v.691h-5.708v.214a1.907,1.907,0,0,0,2.089,2.072,2.612,2.612,0,0,0,2.189-1.168L290.1,51.16a4.253,4.253,0,0,1-3.553,1.579C284.009,52.739,282.5,50.979,282.5,48.232Zm2.187-.888v.132H288.2v-.148c0-1.185-.61-1.991-1.695-1.991A1.823,1.823,0,0,0,284.683,47.344Z" fill="#fff"/><path d="M292.25,52.541V43.955h2.105v1.777h.083a2.2,2.2,0,0,1,2.27-1.777h.461v1.991h-.659c-1.415,0-2.155.394-2.155,1.332v5.263Z" fill="#fff"/><path d="M298.533,41.653v-.329c0-.609.362-1.053,1.233-1.053.856,0,1.235.444,1.235,1.053v.329c0,.608-.379,1.052-1.235,1.052C298.9,42.705,298.533,42.261,298.533,41.653Zm.181,2.3h2.105v8.586h-2.105Z" fill="#fff"/><path d="M303.254,52.541V43.955h2.1v1.431h.083a2.368,2.368,0,0,1,2.4-1.628c1.76,0,2.748,1.217,2.748,3.356v5.427h-2.106V47.328c0-1.218-.411-1.843-1.415-1.843-.872,0-1.711.461-1.711,1.382v5.674Z" fill="#fff"/><path d="M316.167,56.029c-2.9,0-4-.757-4-2.024a1.581,1.581,0,0,1,1.529-1.644V52.18a1.412,1.412,0,0,1-1.1-1.432c0-.887.756-1.332,1.579-1.512v-.067a2.589,2.589,0,0,1-1.563-2.5c0-1.743,1.234-2.911,3.554-2.911a4.766,4.766,0,0,1,1.5.214v-.28a1.1,1.1,0,0,1,1.218-1.25h1.332v1.612h-1.826v.231a2.568,2.568,0,0,1,1.332,2.384c0,1.727-1.217,2.879-3.552,2.879a5.314,5.314,0,0,1-1.317-.148.878.878,0,0,0-.608.773c0,.428.361.642,1.118.642h2.3c2.1,0,3.011.9,3.011,2.451C320.674,55.058,319.456,56.029,316.167,56.029Zm1.069-3.389h-2.929a1.056,1.056,0,0,0-.443.889c0,.657.493,1.052,1.809,1.052h1.052c1.366,0,1.975-.345,1.975-1.069C318.7,52.969,318.3,52.64,317.236,52.64Zm.477-5.839v-.28c0-.871-.543-1.316-1.546-1.316s-1.547.445-1.547,1.316v.28c0,.856.543,1.316,1.547,1.316S317.713,47.657,317.713,46.8Z" fill="#fff"/><polygon points="7.077 52.751 0 45.674 19.298 26.375 0 7.077 7.077 0 33.452 26.375 7.077 52.751" fill="#fff"/><polygon points="29.914 52.751 22.837 45.674 42.136 26.375 22.837 7.077 29.914 0 56.289 26.375 29.914 52.751" fill="#00957d"/></svg>