<?xml version="1.0" encoding="UTF-8" standalone="no"?>
<svg
   id="Layer_1"
   data-name="Layer 1"
   viewBox="0 0 221.67398 54.029"
   version="1.1"
   sodipodi:docname="logo.svg"
   width="221.674"
   height="54.028999"
   inkscape:version="1.3.2 (091e20ef0f, 2023-11-25)"
   xmlns:inkscape="http://www.inkscape.org/namespaces/inkscape"
   xmlns:sodipodi="http://sodipodi.sourceforge.net/DTD/sodipodi-0.dtd"
   xmlns="http://www.w3.org/2000/svg"
   xmlns:svg="http://www.w3.org/2000/svg">
  <defs
     id="defs27" />
  <sodipodi:namedview
     id="namedview27"
     pagecolor="#000000"
     bordercolor="#000000"
     borderopacity="0.25"
     inkscape:showpageshadow="2"
     inkscape:pageopacity="0.0"
     inkscape:pagecheckerboard="0"
     inkscape:deskcolor="#d1d1d1"
     inkscape:zoom="6.5830093"
     inkscape:cx="157.7546"
     inkscape:cy="28.026696"
     inkscape:window-width="2560"
     inkscape:window-height="1371"
     inkscape:window-x="0"
     inkscape:window-y="0"
     inkscape:window-maximized="1"
     inkscape:current-layer="Layer_1" />
  <path
     d="M 63.09,44.705 H 73.618 V 24.9 H 62.4 V 16.932 H 73.618 V 11.738 C 73.618,5.712 77.081,1.417 84.56,1.417 H 96.681 V 9.382 H 83.868 v 7.55 H 96.681 V 24.9 H 83.868 v 19.805 h 11.22 v 7.965 h -32 z"
     fill="#ffffff"
     id="path1" />
  <path
     d="m 104.643,44.705 h 10.529 V 24.9 h -11.221 v -7.968 h 11.221 v -5.194 c 0,-6.026 3.462,-10.321 10.942,-10.321 h 12.121 v 7.965 h -12.813 v 7.55 h 12.813 V 24.9 h -12.813 v 19.805 h 11.219 v 7.965 h -32 z"
     fill="#ffffff"
     id="path2" />
  <path
     d="m 141.764,16.932 h 8.52 l 2.562,28.95 h 0.693 l 4.224,-28.95 h 9 l 4.157,28.95 h 0.692 l 2.632,-28.95 h 8.1 l -4.218,35.738 h -12.19 L 162.4,28.013 h -0.692 L 158.179,52.67 H 145.99 Z"
     fill="#ffffff"
     id="path3" />
  <path
     d="m 210.053,46.16 h -0.484 c -1.8,4.294 -4.849,7.341 -10.6,7.341 -7.9,0 -13.436,-5.749 -13.436,-18.7 0,-12.951 5.541,-18.7 13.436,-18.7 5.748,0 8.8,3.047 10.6,7.341 h 0.484 V 1.417 H 220.3 V 52.67 h -10.247 z m 0,-6.095 V 29.537 c 0,-3.74 -3.046,-5.471 -6.648,-5.471 -4.571,0 -7.2,2.978 -7.2,7.965 v 5.54 c 0,4.987 2.632,7.965 7.2,7.965 3.602,0 6.648,-1.731 6.648,-5.471 z"
     fill="#ffffff"
     id="path4" />
  <polygon
     points="0,7.077 7.077,0 33.452,26.375 7.077,52.751 0,45.674 19.298,26.375 "
     fill="#ffffff"
     id="polygon26" />
  <polygon
     points="22.837,7.077 29.914,0 56.289,26.375 29.914,52.751 22.837,45.674 42.136,26.375 "
     fill="#00957d"
     id="polygon27" />
</svg>
